HIERARCHY
ROOT Hips
{
	OFFSET 0.00000 0.00000 0.00000
	CHANNELS 6 Xposition Yposition Zposition Zrotation Yrotation Xrotation 
	JOINT LHipJoint
	{
		OFFSET 0 0 0
		CHANNELS 3 Zrotation Yrotation Xrotation
		JOINT LeftUpLeg
		{
			OFFSET 1.42489 -1.84941 0.69647
			CHANNELS 3 Zrotation Yrotation Xrotation
			JOINT LeftLeg
			{
				OFFSET 2.44443 -6.71602 0.00000
				CHANNELS 3 Zrotation Yrotation Xrotation
				JOINT LeftFoot
				{
					OFFSET 2.62838 -7.22137 0.00000
					CHANNELS 3 Zrotation Yrotation Xrotation
					JOINT LeftToeBase
					{
						OFFSET 0.24036 -0.66037 2.29953
						CHANNELS 3 Zrotation Yrotation Xrotation
						End Site
						{
							OFFSET 0.00000 -0.00000 1.19837
						}
					}
				}
			}
		}
	}
	JOINT RHipJoint
	{
		OFFSET 0 0 0
		CHANNELS 3 Zrotation Yrotation Xrotation
		JOINT RightUpLeg
		{
			OFFSET -1.37055 -1.84941 0.69647
			CHANNELS 3 Zrotation Yrotation Xrotation
			JOINT RightLeg
			{
				OFFSET -2.54834 -7.00152 0.00000
				CHANNELS 3 Zrotation Yrotation Xrotation
				JOINT RightFoot
				{
					OFFSET -2.65692 -7.29983 0.00000
					CHANNELS 3 Zrotation Yrotation Xrotation
					JOINT RightToeBase
					{
						OFFSET -0.18839 -0.51760 2.29390
						CHANNELS 3 Zrotation Yrotation Xrotation
						End Site
						{
							OFFSET -0.00000 -0.00000 1.18261
						}
					}
				}
			}
		}
	}
	JOINT LowerBack
	{
		OFFSET 0 0 0
		CHANNELS 3 Zrotation Yrotation Xrotation
		JOINT Spine
		{
			OFFSET 0.05220 2.15489 0.05011
			CHANNELS 3 Zrotation Yrotation Xrotation
			JOINT Spine1
			{
				OFFSET -0.07653 2.14219 -0.05668
				CHANNELS 3 Zrotation Yrotation Xrotation
				JOINT Neck
				{
					OFFSET 0 0 0
					CHANNELS 3 Zrotation Yrotation Xrotation
					JOINT Neck1
					{
						OFFSET 0.01370 1.58638 0.01447
						CHANNELS 3 Zrotation Yrotation Xrotation
						JOINT Head
						{
							OFFSET 0.23548 1.54190 -0.21747
							CHANNELS 3 Zrotation Yrotation Xrotation
							End Site
							{
								OFFSET 0.07132 1.59823 -0.08163
							}
						}
					}
				}
				JOINT LeftShoulder
				{
					OFFSET 0 0 0
					CHANNELS 3 Zrotation Yrotation Xrotation
					JOINT LeftArm
					{
						OFFSET 3.47056 1.45357 -0.58896
						CHANNELS 3 Zrotation Yrotation Xrotation
						JOINT LeftForeArm
						{
							OFFSET 5.19069 -0.00000 0.00000
							CHANNELS 3 Zrotation Yrotation Xrotation
							JOINT LeftHand
							{
								OFFSET 3.30016 -0.00000 0.00000
								CHANNELS 3 Zrotation Yrotation Xrotation
								JOINT LeftFingerBase
								{
									OFFSET 0 0 0
									CHANNELS 3 Zrotation Yrotation Xrotation
									JOINT LeftHandIndex1
									{
										OFFSET 0.70770 -0.00000 0.00000
										CHANNELS 3 Zrotation Yrotation Xrotation
										End Site
										{
											OFFSET 0.57056 -0.00000 0.00000
										}
									}
								}
								JOINT LThumb
								{
									OFFSET 0 0 0
									CHANNELS 3 Zrotation Yrotation Xrotation
									End Site
									{
										OFFSET 0.57928 -0.00000 0.57928
									}
								}
							}
						}
					}
				}
				JOINT RightShoulder
				{
					OFFSET 0 0 0
					CHANNELS 3 Zrotation Yrotation Xrotation
					JOINT RightArm
					{
						OFFSET -2.89018 2.03305 -0.26731
						CHANNELS 3 Zrotation Yrotation Xrotation
						JOINT RightForeArm
						{
							OFFSET -5.23924 -0.00000 0.00000
							CHANNELS 3 Zrotation Yrotation Xrotation
							JOINT RightHand
							{
								OFFSET -3.32953 -0.00000 0.00000
								CHANNELS 3 Zrotation Yrotation Xrotation
								JOINT RightFingerBase
								{
									OFFSET 0 0 0
									CHANNELS 3 Zrotation Yrotation Xrotation
									JOINT RightHandIndex1
									{
										OFFSET -0.60741 -0.00000 0.00000
										CHANNELS 3 Zrotation Yrotation Xrotation
										End Site
										{
											OFFSET -0.48971 -0.00000 0.00000
										}
									}
								}
								JOINT RThumb
								{
									OFFSET 0 0 0
									CHANNELS 3 Zrotation Yrotation Xrotation
									End Site
									{
										OFFSET -0.49719 -0.00000 0.49719
									}
								}
							}
						}
					}
				}
			}
		}
	}
}
MOTION
Frames: 7
Frame Time: 0.0833333
0.00 0.00 0.00 0 0 0 0 0 0 -21 0 0 0 0 0 0 0 0 0 0 0 0 0 0 21 0 0 0 0 0 0 0 0 0 0 0 0 0 0 0 0 0 0 0 0 0 0 -16 0 0 21 0 0 11 0 0 0 -8 0 0 0 0 0 0 0 0 0 0 0 0 0 0 0 0 0 0 0 0 8 0 0 0 0 0 0 0 0 0 0 0 0 0 0 0 0 0
0.00 0.00 0.00 -174.4840 -46.3374 180.1940 0.0000 0.0000 0.0000 -14.8253 2.9210 -26.5626 4.8927 13.2619 40.3570 1.3608 -4.4913 -21.0359 0.1709 -2.6635 -7.3432 0.0000 0.0000 0.0000 22.0371 3.4241 -25.9469 -5.2263 -13.6342 41.7913 -0.8361 -5.2890 -19.9779 -1.4062 7.5009 -21.2080 6.2593 -0.9732 5.7264 -1.3857 -1.5481 7.3739 -4.9400 -0.6172 4.3034 -3.4579 -4.4104 -7.8119 12.4639 -6.6393 4.5575 3.9886 -2.9911 3.1871 -0.0000 -0.0000 0.0000 -70.0909 -10.0756 35.7341 28.1912 -39.2916 -10.2445 -0.0000 0.0000 -12.5178 3.9836 -9.3940 -0.6512 -7.1250 0.0000 -0.0000 -16.3196 20.7099 9.8966 -0.0000 -0.0000 0.0000 75.8184 5.4351 42.0954 -35.2166 44.9662 -14.9662 0.0000 -0.0000 -5.0580 -6.6902 -7.5965 0.8884 7.1250 -0.0000 -0.0000 16.9794 -37.1248 3.4106
0.00 0.00 0.00 -174.5480 -45.3104 182.3490 0.0000 0.0000 0.0000 -13.5442 1.3999 -40.9765 9.2342 16.9561 56.8964 1.9534 -7.8218 -25.0884 0.0474 -1.4056 -3.8655 0.0000 0.0000 0.0000 20.5382 4.9121 -40.3242 -9.2941 -16.9933 57.1019 -1.5966 -0.4648 -24.0746 -0.6738 5.2490 -14.6202 5.7782 -0.3623 14.9404 -1.6212 -1.6481 13.6757 -4.8974 -0.9848 6.2217 -3.3591 -3.9923 4.0145 15.3915 -4.7123 -9.1089 5.4175 -3.0692 -2.8756 0.0000 0.0000 0.0000 -62.2246 -23.1027 32.0820 48.5064 -52.3751 -24.9863 -0.0000 0.0000 -10.0103 8.7812 -9.4180 -1.4480 -7.1250 0.0000 -0.0000 -12.9570 20.5556 7.7811 0.0000 0.0000 0.0000 70.5145 14.4038 38.1185 -53.4543 54.2971 -28.9566 0.0000 -0.0000 -5.1319 -10.0960 -8.5678 1.5195 7.1250 -0.0000 -0.0000 14.3812 -38.3010 2.4326
0.00 0.00 0.00 -166.7870 -43.1996 185.3670 0.0000 0.0000 0.0000 -7.7786 -2.5685 -52.9066 12.5693 18.6211 67.7823 3.1470 -5.9846 -32.3646 0.0455 -1.3773 -3.7877 0.0000 0.0000 0.0000 21.0616 10.5508 -55.3496 -13.8225 -19.0593 71.6618 -1.0820 2.3699 -19.0127 -0.6933 5.3229 -14.8318 -0.0376 1.4511 22.3166 -4.6047 -1.3294 17.5243 -4.9576 -1.6011 6.9150 -4.6390 -2.0600 3.0758 14.9689 -1.8990 -13.2119 5.5353 -1.8283 -4.1951 -0.0000 -0.0000 0.0000 -49.0722 -31.6201 15.1345 59.8980 -56.2827 -34.2563 -0.0000 0.0000 -8.5424 5.5958 -7.0084 -0.6849 -7.1250 0.0000 -0.0000 -15.4257 22.9849 8.4794 -0.0000 -0.0000 0.0000 65.1799 33.2880 42.5427 -58.1986 55.8105 -32.8466 0.0000 -0.0000 -2.4638 -4.5658 -8.8353 0.7027 7.1250 -0.0000 -0.0000 19.0338 -38.1600 3.3520
0.00 0.00 0.00 -169.7330 -36.1611 183.8040 0.0000 0.0000 0.0000 -11.9688 10.3303 -36.3150 9.2356 16.9570 56.9014 3.6015 -12.3269 -34.3733 0.0081 -0.5801 -1.5940 0.0000 0.0000 0.0000 18.9763 17.3402 -63.2759 -15.9494 -19.6020 78.0810 -0.9266 -3.8106 -19.9433 -0.8905 6.0149 -16.8276 -1.1073 -0.3936 23.6322 -10.1696 -4.8249 17.8932 -10.0043 -3.4309 6.1089 -2.5766 0.7295 3.4906 12.5205 1.4363 -7.9047 4.1848 0.1225 -3.0190 0.0000 0.0000 0.0000 -40.0237 -37.2718 9.0191 36.6437 -45.9508 -15.9834 -0.0000 0.0000 -8.2425 6.5350 -9.2911 -1.0596 -7.1250 0.0000 -0.0000 -14.5470 20.7490 8.7310 0.0000 0.0000 0.0000 67.6600 31.5762 50.3015 -81.4154 59.7197 -52.5726 0.0000 -0.0000 -1.2504 1.6928 -10.1792 -0.2993 7.1250 -0.0000 -0.0000 24.5330 -38.9185 3.9605
0.00 0.00 0.00 -173.1740 -37.4260 188.7260 0.0000 0.0000 0.0000 -15.5761 12.2528 -28.2508 5.3339 13.7502 42.2459 2.3293 -14.0437 -27.7358 0.0167 -0.8348 -2.2943 0.0000 0.0000 0.0000 15.9895 16.9265 -62.3816 -11.0906 -17.9792 63.0756 -0.8061 -4.4241 -19.1262 -0.9382 6.1695 -17.2769 -0.7754 -2.6474 18.7350 -9.2453 -6.7749 17.0473 -9.0089 -4.1799 7.2552 -1.5902 1.7972 2.8906 11.7734 2.6684 -6.0743 4.1585 0.8269 -2.7198 -0.0000 -0.0000 0.0000 -45.9965 -36.3742 12.0425 27.9052 -39.0289 -10.0640 -0.0000 0.0000 -6.8021 5.5267 -10.0051 -0.9631 -7.1250 0.0000 -0.0000 -15.1914 20.0831 9.3828 -0.0000 -0.0000 0.0000 63.4227 30.9600 50.9050 -92.0531 59.9841 -61.7780 0.0000 -0.0000 -2.0689 3.6627 -9.8932 -0.6301 7.1250 -0.0000 -0.0000 26.0135 -38.4954 4.5390
0.00 0.00 0.00 -175.3140 -39.2795 192.3810 0.0000 0.0000 0.0000 -16.8246 11.0272 -22.7989 3.5525 11.5398 34.1229 1.3908 -11.2012 -21.3585 0.2691 -3.3370 -9.2184 0.0000 0.0000 0.0000 12.0974 17.9407 -58.7465 -6.8087 -15.1686 48.1469 -0.8073 -5.5476 -19.8709 -1.1380 6.7748 -19.0498 0.9818 -3.9812 14.4872 -8.0962 -7.6632 16.2612 -8.9279 -4.2742 8.3808 0.0977 1.8234 2.6156 11.0150 2.6696 -5.6859 3.5508 0.8238 -2.4782 -0.0000 0.0000 0.0000 -51.5963 -34.7481 16.8781 25.8052 -37.0157 -8.7701 -0.0000 0.0000 -6.6284 5.6539 -9.9612 -0.9811 -7.1250 0.0000 -0.0000 -15.1067 20.1222 9.3129 -0.0000 0.0000 0.0000 60.2752 28.4042 48.6042 -102.9437 59.3574 -71.1854 0.0000 -0.0000 -3.7994 2.8876 -10.2557 -0.5145 7.1250 -0.0000 -0.0000 25.5186 -38.8877 4.1677
